<svg width="20" height="21" viewBox="0 0 20 21" fill="none" xmlns="http://www.w3.org/2000/svg">
<g clip-path="url(#clip0_60_6051)">
<path fill-rule="evenodd" clip-rule="evenodd" d="M7.53265 3.08913L7.62848 2.85913C7.67182 2.75413 7.69265 2.64829 7.72682 2.47579L7.75348 2.33663C7.85787 1.81768 8.13869 1.35087 8.54824 1.01549C8.95779 0.680123 9.47081 0.496872 10.0001 0.496872C10.5295 0.496872 11.0425 0.680123 11.4521 1.01549C11.8616 1.35087 12.1424 1.81768 12.2468 2.33663L12.2735 2.47496C12.3076 2.64829 12.3285 2.75413 12.3718 2.85829L12.4676 3.08913C13.5907 3.57193 14.5475 4.37338 15.2198 5.39431C15.8921 6.41525 16.2503 7.61089 16.2501 8.83329V9.87496C16.2501 11.275 17.0751 12.5433 18.3535 13.1116L20.0001 13.8441V14.4416C20.0001 14.8283 20.0001 15.1566 19.9785 15.425C19.9551 15.7075 19.9051 15.9791 19.7726 16.2375C19.573 16.6292 19.2544 16.9478 18.8626 17.1475C18.6043 17.28 18.3326 17.33 18.0501 17.3533C17.7228 17.3729 17.3947 17.3801 17.0668 17.375H14.1668C13.8493 17.375 13.471 17.6666 13.2443 18.2083C12.7135 19.4733 11.491 20.5 10.0001 20.5C8.50848 20.5 7.28682 19.4733 6.75598 18.2083C6.52932 17.6666 6.15098 17.375 5.83348 17.375H2.93348C2.54682 17.375 2.21848 17.375 1.95015 17.3533C1.66765 17.33 1.39682 17.28 1.13765 17.1475C0.745572 16.9479 0.426729 16.6294 0.226817 16.2375C0.0951501 15.9791 0.0451501 15.7075 0.0218167 15.425C0.00221198 15.0976 -0.0050154 14.7696 0.000150058 14.4416V13.8441L1.64682 13.1116C2.27278 12.8334 2.80464 12.3797 3.17795 11.8054C3.55127 11.231 3.75003 10.5608 3.75015 9.87579V8.83329C3.75015 6.25829 5.30848 4.04663 7.53265 3.08913ZM8.97932 2.58413C9.02713 2.34865 9.15488 2.13694 9.34093 1.98488C9.52697 1.83282 9.75987 1.74975 10.0001 1.74975C10.2404 1.74975 10.4733 1.83282 10.6594 1.98488C10.8454 2.13694 10.9732 2.34865 11.021 2.58413C11.0268 2.60913 11.0318 2.63829 11.0376 2.66913C10.3507 2.55428 9.64955 2.55428 8.96265 2.66913C8.96848 2.63829 8.97348 2.60913 8.97932 2.58413ZM10.0001 3.83329C8.67407 3.83329 7.4023 4.36008 6.46462 5.29776C5.52693 6.23544 5.00015 7.50721 5.00015 8.83329V9.87496C5.00022 10.8019 4.73141 11.7091 4.22629 12.4863C3.72117 13.2636 3.00143 13.8777 2.15432 14.2541L1.25015 14.6558C1.25098 14.9458 1.25432 15.1558 1.26765 15.3233C1.28432 15.5283 1.31348 15.6166 1.34098 15.67C1.42088 15.8268 1.54836 15.9542 1.70515 16.0341C1.75848 16.0616 1.84682 16.0908 2.05182 16.1075C2.26348 16.1241 2.54015 16.125 2.95848 16.125H10.0001H17.0418C17.4601 16.125 17.7368 16.125 17.9485 16.1075C18.1535 16.0908 18.2418 16.0616 18.2951 16.0341C18.4519 15.9542 18.5794 15.8268 18.6593 15.67C18.6868 15.6166 18.716 15.5283 18.7326 15.3233C18.746 15.155 18.7493 14.9458 18.7493 14.6566L17.846 14.2541C16.999 13.8777 16.2793 13.2638 15.7742 12.4867C15.2691 11.7096 15.0002 10.8026 15.0001 9.87579V8.83329C15.0001 7.50721 14.4734 6.23544 13.5357 5.29776C12.598 4.36008 11.3262 3.83329 10.0001 3.83329ZM7.90848 17.725C7.85826 17.6048 7.80065 17.488 7.73598 17.375H12.2643C12.1976 17.4916 12.1393 17.61 12.091 17.725C11.7143 18.6233 10.8901 19.25 10.0001 19.25C9.11015 19.25 8.28598 18.6233 7.90848 17.725Z" fill="#131313"/>
</g>
<defs>
<clipPath id="clip0_60_6051">
<rect width="20" height="20" fill="white" transform="translate(0 0.5)"/>
</clipPath>
</defs>
</svg>
