<svg width="20" height="21" viewBox="0 0 20 21" fill="none" xmlns="http://www.w3.org/2000/svg">
<path d="M10.0002 1.33333C15.0629 1.33333 19.1668 5.43704 19.1668 10.4995C19.1668 15.562 15.0629 19.6657 10.0002 19.6657C8.53716 19.6678 7.09509 19.3182 5.79542 18.6465L2.28825 19.6245C2.09258 19.6791 1.88591 19.6807 1.68942 19.6291C1.49292 19.5776 1.31367 19.4747 1.17002 19.3311C1.02637 19.1874 0.923499 19.0082 0.871937 18.8117C0.820375 18.6152 0.82198 18.4086 0.876587 18.2129L1.85559 14.7087C1.18216 13.4079 0.8316 11.9642 0.833504 10.4995C0.833504 5.43704 4.93742 1.33333 10.0002 1.33333ZM10.0002 2.70826C7.93369 2.70826 5.95185 3.52912 4.49063 4.99027C3.02941 6.45142 2.2085 8.43316 2.2085 10.4995C2.2085 11.847 2.55042 13.1421 3.19209 14.2916L3.32959 14.5391L2.31025 18.1909L5.965 17.1716L6.2125 17.3091C7.25235 17.8872 8.41079 18.2195 9.59899 18.2806C10.7872 18.3416 11.9736 18.1297 13.0672 17.6612C14.1608 17.1926 15.1326 16.4799 15.908 15.5776C16.6835 14.6753 17.242 13.6074 17.5407 12.4559C17.8395 11.3043 17.8705 10.0996 17.6314 8.93412C17.3924 7.76868 16.8896 6.67346 16.1617 5.73243C15.4337 4.79141 14.4999 4.02959 13.4319 3.50537C12.3638 2.98116 11.1899 2.70849 10.0002 2.70826ZM10.0002 13.7077C10.2433 13.7077 10.4764 13.8043 10.6483 13.9762C10.8203 14.1481 10.9168 14.3812 10.9168 14.6243C10.9168 14.8674 10.8203 15.1006 10.6483 15.2725C10.4764 15.4444 10.2433 15.5409 10.0002 15.5409C9.75705 15.5409 9.52389 15.4444 9.35199 15.2725C9.18008 15.1006 9.0835 14.8674 9.0835 14.6243C9.0835 14.3812 9.18008 14.1481 9.35199 13.9762C9.52389 13.8043 9.75705 13.7077 10.0002 13.7077ZM10.0002 5.68728C10.6687 5.68728 11.3099 5.95285 11.7827 6.42557C12.2554 6.8983 12.521 7.53945 12.521 8.20798C12.521 9.13377 12.2487 9.65074 11.5576 10.3703L11.4027 10.527C10.8325 11.0972 10.6877 11.3392 10.6877 11.8745C10.6877 12.0568 10.6152 12.2317 10.4863 12.3606C10.3574 12.4895 10.1825 12.5619 10.0002 12.5619C9.81783 12.5619 9.64296 12.4895 9.51403 12.3606C9.3851 12.2317 9.31267 12.0568 9.31267 11.8745C9.31267 10.9487 9.58492 10.4317 10.2761 9.71216L10.431 9.55542C11.0012 8.98528 11.146 8.74329 11.146 8.20798C11.1451 7.91492 11.0318 7.63335 10.8296 7.4212C10.6274 7.20905 10.3516 7.08245 10.0589 7.06742C9.76623 7.05239 9.4789 7.15009 9.25604 7.34041C9.03317 7.53074 8.89171 7.79923 8.86075 8.09065L8.85433 8.20798C8.85433 8.39031 8.7819 8.56517 8.65297 8.69409C8.52404 8.82302 8.34917 8.89545 8.16683 8.89545C7.9845 8.89545 7.80963 8.82302 7.6807 8.69409C7.55177 8.56517 7.47933 8.39031 7.47933 8.20798C7.47933 7.53945 7.74492 6.8983 8.21767 6.42557C8.69042 5.95285 9.3316 5.68728 10.0002 5.68728Z" fill="#131313"/>
</svg>
