<svg width="20" height="21" viewBox="0 0 20 21" fill="none" xmlns="http://www.w3.org/2000/svg">
<path d="M4.32481 14.7722H5.31548L5.66661 14.4293C4.43767 12.9818 3.6978 11.1025 3.6978 9.05814C3.6978 4.49963 7.34699 0.804565 11.8489 0.804565C16.3508 0.804565 20 4.49963 20 9.05814C20 13.6167 16.3508 17.3117 11.8489 17.3117C9.82994 17.3117 7.974 16.5626 6.54442 15.3182L6.20584 15.6737V16.6768L1.86848 20.8046L0 18.9126L4.32481 14.7722ZM11.8489 14.7722C14.9714 14.7722 17.492 12.2199 17.492 9.05814C17.492 5.89639 14.9714 3.34413 11.8489 3.34413C8.7264 3.34413 6.20584 5.89639 6.20584 9.05814C6.20584 12.2199 8.7264 14.7722 11.8489 14.7722Z" fill="#4D4D4D"/>
</svg>
