<svg width="25" height="24" viewBox="0 0 25 24" fill="none" xmlns="http://www.w3.org/2000/svg">
<path d="M9.625 2C7.005 2 4.875 4.13 4.875 6.75C4.875 9.32 6.885 11.4 9.505 11.49C9.585 11.48 9.665 11.48 9.725 11.49C9.745 11.49 9.755 11.49 9.775 11.49C9.785 11.49 9.785 11.49 9.795 11.49C12.355 11.4 14.365 9.32 14.375 6.75C14.375 4.13 12.245 2 9.625 2Z" fill="#131313"/>
<path d="M14.705 14.15C11.915 12.29 7.36496 12.29 4.55496 14.15C3.28496 15 2.58496 16.15 2.58496 17.38C2.58496 18.61 3.28496 19.75 4.54496 20.59C5.94496 21.53 7.78496 22 9.62496 22C11.465 22 13.305 21.53 14.705 20.59C15.965 19.74 16.665 18.6 16.665 17.36C16.655 16.13 15.965 14.99 14.705 14.15Z" fill="#131313"/>
<path d="M20.6149 7.33998C20.7749 9.27998 19.3949 10.98 17.4849 11.21C17.4749 11.21 17.4749 11.21 17.4649 11.21H17.4349C17.3749 11.21 17.3149 11.21 17.2649 11.23C16.2949 11.28 15.4049 10.97 14.7349 10.4C15.7649 9.47998 16.3549 8.09998 16.2349 6.59998C16.1649 5.78998 15.8849 5.04998 15.4649 4.41998C15.8449 4.22998 16.2849 4.10998 16.7349 4.06998C18.6949 3.89998 20.4449 5.35998 20.6149 7.33998Z" fill="#131313"/>
<path d="M22.6152 16.59C22.5352 17.56 21.9152 18.4 20.8752 18.97C19.8752 19.52 18.6152 19.78 17.3652 19.75C18.0852 19.1 18.5052 18.29 18.5852 17.43C18.6852 16.19 18.0952 15 16.9152 14.05C16.2452 13.52 15.4652 13.1 14.6152 12.79C16.8252 12.15 19.6052 12.58 21.3152 13.96C22.2352 14.7 22.7052 15.63 22.6152 16.59Z" fill="#131313"/>
</svg>
