<svg width="25" height="24" viewBox="0 0 25 24" fill="none" xmlns="http://www.w3.org/2000/svg">
<path d="M15.875 10C15.875 10.3978 16.033 10.7794 16.3143 11.0607C16.5956 11.342 16.9772 11.5 17.375 11.5C17.7728 11.5 18.1544 11.342 18.4357 11.0607C18.717 10.7794 18.875 10.3978 18.875 10C18.875 9.60218 18.717 9.22064 18.4357 8.93934C18.1544 8.65804 17.7728 8.5 17.375 8.5C16.9772 8.5 16.5956 8.65804 16.3143 8.93934C16.033 9.22064 15.875 9.60218 15.875 10ZM7.375 11.5C6.97718 11.5 6.59564 11.342 6.31434 11.0607C6.03304 10.7794 5.875 10.3978 5.875 10C5.875 9.60218 6.03304 9.22064 6.31434 8.93934C6.59564 8.65804 6.97718 8.5 7.375 8.5C7.77282 8.5 8.15436 8.65804 8.43566 8.93934C8.71696 9.22064 8.875 9.60218 8.875 10C8.875 10.3978 8.71696 10.7794 8.43566 11.0607C8.15436 11.342 7.77282 11.5 7.375 11.5ZM10.875 10C10.875 10.3978 11.033 10.7794 11.3143 11.0607C11.5956 11.342 11.9772 11.5 12.375 11.5C12.7728 11.5 13.1544 11.342 13.4357 11.0607C13.717 10.7794 13.875 10.3978 13.875 10C13.875 9.60218 13.717 9.22064 13.4357 8.93934C13.1544 8.65804 12.7728 8.5 12.375 8.5C11.9772 8.5 11.5956 8.65804 11.3143 8.93934C11.033 9.22064 10.875 9.60218 10.875 10Z" fill="#5E5E5E"/>
<path fill-rule="evenodd" clip-rule="evenodd" d="M22.375 9.628C22.375 16.625 17.291 20.558 13.875 22.314C13.322 22.599 12.812 22.826 12.375 23V22.256C12.375 21.967 12.333 21.689 12.256 21.424C11.89 20.169 10.726 19.208 9.422 18.796C5.477 17.55 2.375 13.916 2.375 9.628C2.375 4.31 7.143 0 12.375 0C17.607 0 22.375 4.31 22.375 9.628ZM9.873 17.365C6.461 16.288 3.875 13.171 3.875 9.628C3.875 5.219 7.888 1.5 12.375 1.5C16.862 1.5 20.875 5.22 20.875 9.628C20.875 15.532 16.75 19.038 13.62 20.754C13.01 19.025 11.404 17.848 9.873 17.365V17.365Z" fill="#5E5E5E"/>
</svg>
